<?xml version="1.0" encoding="utf-8"?><svg viewBox="0 0 106 100" xmlns="http://www.w3.org/2000/svg" xmlns:xlink="http://www.w3.org/1999/xlink"><style>:root>svg{display:none}:root>svg:target{display:block}</style><svg fill="none" viewBox="0 0 14 14" id="arrow" xmlns="http://www.w3.org/2000/svg"><path d="M14 1a1 1 0 00-1-1H4a1 1 0 000 2h8v8a1 1 0 102 0V1zM1.707 13.707l12-12L12.293.293l-12 12 1.414 1.414z" fill="#000"/></svg><svg fill="none" viewBox="0 0 12 12" id="footer-arrow" xmlns="http://www.w3.org/2000/svg"><path d="M11.5 1a.5.5 0 00-.5-.5H6.5a.5.5 0 000 1h4v4a.5.5 0 001 0V1zM1.354 11.354l10-10-.708-.708-10 10 .708.708z" fill="#000"/></svg><svg fill="none" viewBox="0 0 86 34" id="jvc" xmlns="http://www.w3.org/2000/svg"><path fill-rule="evenodd" clip-rule="evenodd" d="M17.75 26.423H7.765v-6.409H0v7.849C0 31.569 2.154 34 5.545 34h14.027c4.787 0 6.037-3.326 6.037-5.88V0H17.75v26.423zm25.529-4.955L36.032 0h-8.389l11.474 34h8.47L58.623 0h-8.39l-6.954 21.468zm42.72-8.487V7.387C86 .53 83.832 0 78.13 0h-9.987c-6.74 0-8.017 1.167-8.017 7.414v19.022c0 6.015 2.78 7.563 8.03 7.563h12.38C84.485 34 86 31.257 86 27.781v-7.048h-7.859v5.69h-9.985V7.387h9.985v5.594H86z" fill="#CC2229"/></svg><svg fill="none" viewBox="0 0 66 34" id="logo-pult" xmlns="http://www.w3.org/2000/svg"><g clip-path="url(#dclip0)"><path d="M33.258 29.695L46.569 34V0L33.258 4.305v25.39z" fill="#4CC7E9"/><path d="M0 12.933h2.282v1.277c.274-.449.66-.82 1.12-1.077a3.08 3.08 0 011.508-.39c2.015 0 3.568 1.486 3.568 4.172v.133c0 2.686-1.534 4.21-3.568 4.21a2.945 2.945 0 01-1.508-.347 2.92 2.92 0 01-1.12-1.063v4.019H0V12.933zm6.157 4.134v-.134c0-1.657-.823-2.457-1.957-2.457-1.188 0-2.014.817-2.014 2.457v.134c0 1.638.787 2.438 2.014 2.438 1.267-.02 1.957-.857 1.957-2.438zM9.707 18.19v-5.257h2.263v4.934c0 1.104.46 1.638 1.42 1.638s1.707-.59 1.707-1.79v-4.782h2.263v8.152h-2.244V19.81a2.714 2.714 0 01-1.086 1.111 2.74 2.74 0 01-1.523.337c-1.612 0-2.8-.934-2.8-3.067zM19.105 9.238h2.264v11.828h-2.264V9.238zM23.399 18.666v-4.133h-1.055v-1.6h1.055v-1.752h2.263v1.752h1.726v1.6h-1.726v3.924c0 .647.326.97.901.97.296.013.59-.04.864-.152v1.755c-.445.15-.912.22-1.382.21-1.706-.002-2.646-.878-2.646-2.574zM52.496 12.933h2.282v1.562c.211-.518.58-.958 1.054-1.258a2.718 2.718 0 011.594-.418v2.095c-1.688-.019-2.648.533-2.648 2.095v4.076h-2.282v-8.152zM58.348 18.19v-5.257h2.263v4.934c0 1.104.46 1.638 1.419 1.638.959 0 1.707-.59 1.707-1.79v-4.782H66v8.152h-2.263V19.81a2.714 2.714 0 01-1.087 1.111 2.74 2.74 0 01-1.522.337c-1.592 0-2.78-.934-2.78-3.067z" fill="#000"/></g><defs><clipPath id="dclip0"><path fill="#fff" d="M0 0h66v34H0z"/></clipPath></defs></svg><svg fill="none" viewBox="0 0 106 56" id="pult-footer" xmlns="http://www.w3.org/2000/svg"><g clip-path="url(#eclip0)"><path d="M53.416 48.91L74.794 56V0L53.416 7.09v41.82z" fill="#4CC7E9"/><path d="M0 21.303h3.666v2.102a4.964 4.964 0 011.798-1.773 4.854 4.854 0 012.422-.642c3.235 0 5.73 2.447 5.73 6.87v.22c0 4.423-2.464 6.934-5.73 6.934a4.633 4.633 0 01-2.423-.572 4.74 4.74 0 01-1.797-1.75v6.62H0V21.302zm9.888 6.808v-.22c0-2.73-1.321-4.047-3.142-4.047-1.909 0-3.235 1.345-3.235 4.047v.22c0 2.698 1.263 4.016 3.235 4.016 2.034-.033 3.142-1.412 3.142-4.016zM15.587 29.96v-8.658h3.635v8.126c0 1.82.74 2.697 2.28 2.697 1.54 0 2.742-.971 2.742-2.949v-7.874h3.634v13.427h-3.604v-2.102c-.394.77-1 1.406-1.745 1.83a4.31 4.31 0 01-2.445.555c-2.588 0-4.497-1.538-4.497-5.051zM30.682 15.216h3.635v19.482h-3.635V15.216zM37.583 30.746v-6.808h-1.694v-2.635h1.694v-2.887h3.635v2.887h2.772v2.635h-2.772V30.4c0 1.067.523 1.6 1.447 1.6.475.02.948-.066 1.387-.251v2.89a6.317 6.317 0 01-2.218.345c-2.741-.003-4.251-1.446-4.251-4.238zM84.314 21.301h3.665v2.573a4.405 4.405 0 011.692-2.074 4.283 4.283 0 012.56-.687v3.45c-2.71-.03-4.252.879-4.252 3.451v6.714h-3.665V21.3zM93.71 29.96V21.3h3.635v8.126c0 1.82.739 2.698 2.279 2.698s2.742-.972 2.742-2.95V21.3h3.635v13.428h-3.635v-2.102a4.427 4.427 0 01-1.745 1.83 4.312 4.312 0 01-2.445.554c-2.558 0-4.466-1.538-4.466-5.05z" fill="#000"/></g><defs><clipPath id="eclip0"><path fill="#fff" d="M0 0h106v56H0z"/></clipPath></defs></svg><svg fill="none" viewBox="0 0 100 100" id="up" xmlns="http://www.w3.org/2000/svg"><path d="M50.707 36.793a1 1 0 00-1.414 0l-6.364 6.364a1 1 0 001.414 1.414L50 38.914l5.657 5.657a1 1 0 001.414-1.414l-6.364-6.364zM51 62.5v-25h-2v25h2zM50 99C22.938 99 1 77.062 1 50h-2c0 28.166 22.834 51 51 51v-2zm49-49c0 27.062-21.938 49-49 49v2c28.166 0 51-22.834 51-51h-2zM50 1c27.062 0 49 21.938 49 49h2c0-28.166-22.834-51-51-51v2zm0-2C21.834-1-1 21.834-1 50h2C1 22.938 22.938 1 50 1v-2z" fill="#000"/></svg></svg>