<svg width="86" height="34" fill="none" xmlns="http://www.w3.org/2000/svg"><path fill-rule="evenodd" clip-rule="evenodd" d="M17.75 26.423H7.765v-6.409H0v7.849C0 31.569 2.154 34 5.545 34h14.027c4.787 0 6.037-3.326 6.037-5.88V0H17.75v26.423zm25.529-4.955L36.032 0h-8.389l11.474 34h8.47L58.623 0h-8.39l-6.954 21.468zm42.72-8.487V7.387C86 .53 83.832 0 78.13 0h-9.987c-6.74 0-8.017 1.167-8.017 7.414v19.022c0 6.015 2.78 7.563 8.03 7.563h12.38C84.485 34 86 31.257 86 27.781v-7.048h-7.859v5.69h-9.985V7.387h9.985v5.594H86z" fill="#CC2229"/></svg>