<svg width="66" height="34" fill="none" xmlns="http://www.w3.org/2000/svg"><g clip-path="url(#clip0)"><path d="M33.258 29.695L46.569 34V0L33.258 4.305v25.39z" fill="#4CC7E9"/><path d="M0 12.933h2.282v1.277a3.06 3.06 0 011.12-1.077 3.08 3.08 0 011.508-.39c2.015 0 3.568 1.486 3.568 4.172v.133c0 2.686-1.534 4.21-3.568 4.21a2.945 2.945 0 01-1.508-.347 2.92 2.92 0 01-1.12-1.063v4.019H0V12.933zm6.157 4.134v-.134c0-1.657-.823-2.457-1.957-2.457-1.188 0-2.014.817-2.014 2.457v.134c0 1.638.787 2.438 2.014 2.438 1.267-.02 1.957-.857 1.957-2.438zm3.55 1.123v-5.257h2.263v4.934c0 1.104.46 1.638 1.42 1.638s1.707-.59 1.707-1.79v-4.782h2.263v8.152h-2.244V19.81a2.714 2.714 0 01-1.086 1.111 2.74 2.74 0 01-1.523.337c-1.612 0-2.8-.934-2.8-3.067zm9.398-8.952h2.264v11.828h-2.264V9.238zm4.294 9.428v-4.133h-1.055v-1.6h1.055v-1.752h2.263v1.752h1.726v1.6h-1.726v3.924c0 .647.326.97.901.97.296.013.59-.04.864-.152v1.755c-.445.15-.912.22-1.382.21-1.706-.002-2.646-.878-2.646-2.574zm29.097-5.733h2.282v1.562c.211-.518.58-.958 1.054-1.258a2.718 2.718 0 011.594-.418v2.095c-1.688-.019-2.648.533-2.648 2.095v4.076h-2.282v-8.152zm5.852 5.257v-5.257h2.263v4.934c0 1.104.46 1.638 1.419 1.638.959 0 1.707-.59 1.707-1.79v-4.782H66v8.152h-2.263V19.81a2.714 2.714 0 01-1.087 1.111 2.74 2.74 0 01-1.522.337c-1.592 0-2.78-.934-2.78-3.067z" fill="#000"/></g><defs><clipPath id="clip0"><path fill="#fff" d="M0 0h66v34H0z"/></clipPath></defs></svg>